<svg id="Layer_1" data-name="Layer 1" xmlns="http://www.w3.org/2000/svg" viewBox="0 0 1500 1000"><defs><style>.cls-1{fill:#fff;}.cls-2{fill:#c60c30;}.cls-3{fill:#003478;}</style></defs><title>South Korea</title><rect id="_19" data-name="19" class="cls-1" width="1500" height="1000"/><rect id="_18" data-name="18" x="243.64" y="162.43" width="250" height="166.67" transform="translate(-40.33 416.17) rotate(-56.31)"/><rect id="_17" data-name="17" class="cls-1" x="196.81" y="218.01" width="291.67" height="20.83" transform="translate(-37.49 386.81) rotate(-56.31)"/><rect id="_16" data-name="16" class="cls-1" x="248.81" y="252.68" width="291.67" height="20.83" transform="translate(-43.18 445.52) rotate(-56.31)"/><rect id="_15" data-name="15" x="1006.36" y="670.91" width="250" height="166.67" transform="translate(-123.77 1277.21) rotate(-56.31)"/><rect id="_14" data-name="14" class="cls-1" x="959.52" y="726.49" width="291.67" height="20.83" transform="translate(-120.93 1247.85) rotate(-56.31)"/><rect id="_13" data-name="13" class="cls-1" x="1011.52" y="761.16" width="291.67" height="20.83" transform="translate(-126.61 1306.56) rotate(-56.31)"/><rect id="_12" data-name="12" class="cls-1" x="1120.94" y="650.07" width="20.83" height="208.33" transform="translate(-123.77 1277.22) rotate(-56.31)"/><circle id="_11" data-name="11" class="cls-2" cx="750" cy="500" r="250" transform="translate(-133.88 676.78) rotate(-45)"/><path id="_10" data-name="10" class="cls-3" d="M542,361.32A125,125,0,1,0,750,500,125,125,0,1,1,958,638.68C881.42,753.56,726.21,784.6,611.32,708S465.4,476.21,542,361.32"/><rect id="_9" data-name="9" x="285.31" y="629.24" width="166.67" height="250" transform="matrix(0.83, -0.55, 0.55, 0.83, -356.46, 331.16)"/><rect id="_8" data-name="8" class="cls-1" x="332.23" y="625.74" width="20.83" height="291.67" transform="translate(-370.44 319.65) rotate(-33.69)"/><rect id="_7" data-name="7" class="cls-1" x="384.23" y="591.07" width="20.83" height="291.67" transform="matrix(0.83, -0.55, 0.55, 0.83, -342.48, 342.67)"/><rect id="_6" data-name="6" x="1048.02" y="120.76" width="166.67" height="250" transform="translate(53.69 668.84) rotate(-33.69)"/><rect id="_5" data-name="5" class="cls-1" x="1094.94" y="117.26" width="20.83" height="291.67" transform="translate(39.7 657.33) rotate(-33.69)"/><rect id="_4" data-name="4" class="cls-1" x="1146.94" y="82.6" width="20.83" height="291.67" transform="translate(67.67 680.35) rotate(-33.69)"/><rect id="_3" data-name="3" class="cls-1" x="1027.19" y="235.35" width="208.33" height="20.83" transform="translate(53.67 668.79) rotate(-33.69)"/><rect id="_2" data-name="2" x="1110.52" y="224.93" width="41.67" height="41.67" transform="translate(53.7 668.88) rotate(-33.69)"/><rect id="_1" data-name="1" class="cls-1" x="326.98" y="743.82" width="83.33" height="20.83" transform="translate(-356.45 331.13) rotate(-33.69)"/></svg>