<svg id="Layer_1" data-name="Layer 1" xmlns="http://www.w3.org/2000/svg" xmlns:xlink="http://www.w3.org/1999/xlink" viewBox="0 0 1500 1000"><defs><style>.cls-1{fill:none;}.cls-2{fill:#df2507;}.cls-3{clip-path:url(#clip-path);}.cls-4{fill:#fff;}</style><clipPath id="clip-path"><rect class="cls-1" width="1500" height="1000"/></clipPath></defs><title>Hong Kong</title><rect class="cls-2" width="1500" height="1000"/><g class="cls-3"><path class="cls-4" d="M1000.7,460c24-7.17,48.16,16.5,48.16,16.5s-19.87-116.27-154-120.78c-131.3,3.72-142.63,128.41-142.63,128.41.47-1.88,12.08-38.77,62.79-61.06,33.73-15.37,73.5-5,73.5-5l-1.07,4.21s-30.71-10.58-71.09,4.91c-48.55,19.05-61.42,62.51-61.42,62.51s20.18-33.56,61.44-29.67c11,1,20.9,6.07,32.91,13.82,19.2,18,31.66,31.14,67.18,30.22,53.46,1.51,48.31-37.71,84.25-44.09m-96.43-20.22-17.78-4.59,16-9-1.13-18.35,13.5,12.48L932,413.66l-7.71,16.67L936,444.51l-18.25-2.16-9.87,15.48Z"/><path class="cls-4" d="M865.64,726c14.24,20.61-.81,50.89-.81,50.89s104.45-54.82,67.28-183.8c-44.12-123.73-166.2-96-166.2-96,1.93-.14,40.6-.49,77.47,40.85,25,27.32,27.45,68.36,27.45,68.36l-4.34.29s.58-32.47-26.63-66.1c-33.12-40.28-78.43-39.09-78.43-39.09s38.15,8.81,47.2,49.26c2.41,10.77.69,21.75-3,35.57-11.15,23.81-19.84,39.73-8,73.22,15.08,51.32,50.79,34.3,68,66.52m-10.56-98L854,609.72l13.49,12.48,17.1-6.74-7.7,16.7,11.68,14.17-18.24-2.17-9.87,15.49-3.58-18L839.05,637Z"/><path class="cls-4" d="M571,679.75c-15.2,19.92-48.65,15-48.65,15s84.41,82.39,195.6,7.19c104-80.2,39.91-187.73,39.91-187.73.72,1.8,13,38.47-14.91,86.31-18.26,32.26-56.54,47.23-56.54,47.23l-1.61-4s31.06-9.49,54.63-45.76c28.07-43.95,12.94-86.68,12.94-86.68s3.41,39-32.26,60.12c-9.5,5.62-20.48,7.37-34.74,8.17-26.1-3.25-43.93-6.59-72.12,15-44.14,30.2-16.92,58.91-42.25,85.19m89.9-40.32,17.09-6.73-7.71,16.68,11.7,14.18-18.26-2.16-9.87,15.49-3.56-18-17.79-4.59,16-9L647.36,627Z"/><path class="cls-4" d="M523.88,385.19c-23.63-8.3-29.26-41.65-29.26-41.65s-52.27,105.74,53.61,188.25c108.42,74.16,190.87-20,190.87-20-1.48,1.24-32.56,24.26-86.68,12.48-36.33-7.38-62.4-39.16-62.4-39.16l3.34-2.78s18.63,26.6,60.4,37.81c50.48,13.12,86.44-14.47,86.44-14.47s-36.06,15.29-67.15-12.11c-8.28-7.3-13.34-17.2-18.5-30.52-5-25.82-7.31-43.81-36.59-63.94-42.36-32.65-61.25,2.11-94.08-13.86m66.13,73,11.68,14.17-18.24-2.17-9.87,15.51-3.59-18-17.78-4.6,16-9-1.12-18.34,13.49,12.46,17.09-6.72Z"/><path class="cls-4" d="M789.48,249.4c.6-25,30.57-40.69,30.57-40.69s-116.72-17-162.47,109.15c-37,126,78.06,175.33,78.06,175.33-1.65-1-33.14-23.47-38.67-78.58-4.19-36.83,18-71.45,18-71.45l3.68,2.33s-19.55,25.93-17.3,69.12c3.12,52.06,40.48,77.73,40.48,77.73s-25.69-29.56-9.24-67.6c4.38-10.13,12.24-18,23.31-27,23-12.71,39.41-20.49,49.5-54.55,18-50.38-20.93-57.6-15.89-93.76m-49,85.47-9.87,15.49-3.57-18-17.8-4.59,16-9-1.11-18.33,13.47,12.48,17.1-6.74L747,322.85,758.69,337Z"/></g></svg>